<mxfile host="app.diagrams.net" modified="2023-07-21T03:34:34.772Z" agent="Mozilla/5.0 (Windows NT 10.0; Win64; x64) AppleWebKit/537.36 (KHTML, like Gecko) Chrome/114.0.0.0 Safari/537.36 Edg/114.0.1823.82" etag="AhYmJi4vSuE0n4ur7vt9" version="21.6.5" type="device">
  <diagram name="PÃ¡gina-1" id="liddBDWWpug2pfPXIte9">
    <mxGraphModel dx="1034" dy="531" grid="1" gridSize="10" guides="1" tooltips="1" connect="1" arrows="1" fold="1" page="1" pageScale="1" pageWidth="827" pageHeight="1169" math="0" shadow="0">
      <root>
        <mxCell id="0" />
        <mxCell id="1" parent="0" />
        <mxCell id="YRJLkEktAnnrpUQx_kfz-3" value="Cliente" style="swimlane;childLayout=stackLayout;horizontal=1;startSize=50;horizontalStack=0;rounded=1;fontSize=14;fontStyle=0;strokeWidth=2;resizeParent=0;resizeLast=1;shadow=0;dashed=0;align=center;arcSize=4;whiteSpace=wrap;html=1;" vertex="1" parent="1">
          <mxGeometry x="310" y="310" width="160" height="160" as="geometry" />
        </mxCell>
        <mxCell id="YRJLkEktAnnrpUQx_kfz-4" value="+ id&lt;br&gt;+ cpf&lt;br&gt;+ nome&lt;br&gt;+ idade&lt;br&gt;+ genero&lt;br&gt;+ nacionalidade&lt;br&gt;+ enderecos" style="align=left;strokeColor=none;fillColor=none;spacingLeft=4;fontSize=12;verticalAlign=top;resizable=0;rotatable=0;part=1;html=1;" vertex="1" parent="YRJLkEktAnnrpUQx_kfz-3">
          <mxGeometry y="50" width="160" height="110" as="geometry" />
        </mxCell>
        <mxCell id="YRJLkEktAnnrpUQx_kfz-5" value="Funcionarios" style="swimlane;childLayout=stackLayout;horizontal=1;startSize=50;horizontalStack=0;rounded=1;fontSize=14;fontStyle=0;strokeWidth=2;resizeParent=0;resizeLast=1;shadow=0;dashed=0;align=center;arcSize=4;whiteSpace=wrap;html=1;" vertex="1" parent="1">
          <mxGeometry x="920" y="585" width="160" height="175" as="geometry" />
        </mxCell>
        <mxCell id="YRJLkEktAnnrpUQx_kfz-6" value="+ id&lt;br&gt;+ cpf&lt;br&gt;+ nome&lt;br&gt;+ dt_nasc&lt;br&gt;+ endereco&lt;br&gt;+ salario" style="align=left;strokeColor=none;fillColor=none;spacingLeft=4;fontSize=12;verticalAlign=top;resizable=0;rotatable=0;part=1;html=1;" vertex="1" parent="YRJLkEktAnnrpUQx_kfz-5">
          <mxGeometry y="50" width="160" height="125" as="geometry" />
        </mxCell>
        <mxCell id="YRJLkEktAnnrpUQx_kfz-34" style="edgeStyle=orthogonalEdgeStyle;rounded=0;orthogonalLoop=1;jettySize=auto;html=1;" edge="1" parent="1" source="YRJLkEktAnnrpUQx_kfz-25" target="YRJLkEktAnnrpUQx_kfz-27">
          <mxGeometry relative="1" as="geometry" />
        </mxCell>
        <mxCell id="YRJLkEktAnnrpUQx_kfz-37" value="0, n" style="edgeLabel;html=1;align=center;verticalAlign=middle;resizable=0;points=[];" vertex="1" connectable="0" parent="YRJLkEktAnnrpUQx_kfz-34">
          <mxGeometry x="0.244" y="1" relative="1" as="geometry">
            <mxPoint y="9" as="offset" />
          </mxGeometry>
        </mxCell>
        <mxCell id="YRJLkEktAnnrpUQx_kfz-35" style="edgeStyle=orthogonalEdgeStyle;rounded=0;orthogonalLoop=1;jettySize=auto;html=1;" edge="1" parent="1" source="YRJLkEktAnnrpUQx_kfz-25" target="YRJLkEktAnnrpUQx_kfz-4">
          <mxGeometry relative="1" as="geometry" />
        </mxCell>
        <mxCell id="YRJLkEktAnnrpUQx_kfz-36" value="1" style="edgeLabel;html=1;align=center;verticalAlign=middle;resizable=0;points=[];" vertex="1" connectable="0" parent="YRJLkEktAnnrpUQx_kfz-35">
          <mxGeometry x="0.0682" y="-1" relative="1" as="geometry">
            <mxPoint as="offset" />
          </mxGeometry>
        </mxCell>
        <mxCell id="YRJLkEktAnnrpUQx_kfz-25" value="possui &lt;br&gt;endereco" style="shape=rhombus;perimeter=rhombusPerimeter;whiteSpace=wrap;html=1;align=center;" vertex="1" parent="1">
          <mxGeometry x="120" y="370" width="120" height="60" as="geometry" />
        </mxCell>
        <mxCell id="YRJLkEktAnnrpUQx_kfz-26" value="endereco" style="swimlane;childLayout=stackLayout;horizontal=1;startSize=50;horizontalStack=0;rounded=1;fontSize=14;fontStyle=0;strokeWidth=2;resizeParent=0;resizeLast=1;shadow=0;dashed=0;align=center;arcSize=4;whiteSpace=wrap;html=1;" vertex="1" parent="1">
          <mxGeometry x="30" y="160" width="160" height="180" as="geometry" />
        </mxCell>
        <mxCell id="YRJLkEktAnnrpUQx_kfz-27" value="+ id&lt;br&gt;+ CEP&lt;br&gt;+ Numero&lt;br&gt;+ Complemento" style="align=left;strokeColor=none;fillColor=none;spacingLeft=4;fontSize=12;verticalAlign=top;resizable=0;rotatable=0;part=1;html=1;" vertex="1" parent="YRJLkEktAnnrpUQx_kfz-26">
          <mxGeometry y="50" width="160" height="130" as="geometry" />
        </mxCell>
        <mxCell id="YRJLkEktAnnrpUQx_kfz-38" value="Conta" style="swimlane;childLayout=stackLayout;horizontal=1;startSize=50;horizontalStack=0;rounded=1;fontSize=14;fontStyle=0;strokeWidth=2;resizeParent=0;resizeLast=1;shadow=0;dashed=0;align=center;arcSize=4;whiteSpace=wrap;html=1;" vertex="1" parent="1">
          <mxGeometry x="700" y="220" width="160" height="210" as="geometry" />
        </mxCell>
        <mxCell id="YRJLkEktAnnrpUQx_kfz-39" value="+ id&lt;br&gt;+ Codigo&lt;br&gt;+ tipo&lt;br&gt;+ saldo&lt;br&gt;+ gerente&lt;br&gt;+ agencia" style="align=left;strokeColor=none;fillColor=none;spacingLeft=4;fontSize=12;verticalAlign=top;resizable=0;rotatable=0;part=1;html=1;" vertex="1" parent="YRJLkEktAnnrpUQx_kfz-38">
          <mxGeometry y="50" width="160" height="160" as="geometry" />
        </mxCell>
        <mxCell id="YRJLkEktAnnrpUQx_kfz-41" value="Agencia" style="swimlane;childLayout=stackLayout;horizontal=1;startSize=50;horizontalStack=0;rounded=1;fontSize=14;fontStyle=0;strokeWidth=2;resizeParent=0;resizeLast=1;shadow=0;dashed=0;align=center;arcSize=4;whiteSpace=wrap;html=1;" vertex="1" parent="1">
          <mxGeometry x="427" y="602" width="160" height="120" as="geometry" />
        </mxCell>
        <mxCell id="YRJLkEktAnnrpUQx_kfz-42" value="+ id&lt;br&gt;+ nome&lt;br&gt;+ Codigo" style="align=left;strokeColor=none;fillColor=none;spacingLeft=4;fontSize=12;verticalAlign=top;resizable=0;rotatable=0;part=1;html=1;" vertex="1" parent="YRJLkEktAnnrpUQx_kfz-41">
          <mxGeometry y="50" width="160" height="70" as="geometry" />
        </mxCell>
        <mxCell id="YRJLkEktAnnrpUQx_kfz-46" value="possui" style="shape=rhombus;perimeter=rhombusPerimeter;whiteSpace=wrap;html=1;align=center;" vertex="1" parent="1">
          <mxGeometry x="530" y="330" width="120" height="60" as="geometry" />
        </mxCell>
        <mxCell id="YRJLkEktAnnrpUQx_kfz-47" value="" style="endArrow=none;html=1;rounded=0;entryX=-0.008;entryY=0.435;entryDx=0;entryDy=0;entryPerimeter=0;exitX=1;exitY=0.5;exitDx=0;exitDy=0;" edge="1" parent="1" source="YRJLkEktAnnrpUQx_kfz-46" target="YRJLkEktAnnrpUQx_kfz-39">
          <mxGeometry relative="1" as="geometry">
            <mxPoint x="630" y="350" as="sourcePoint" />
            <mxPoint x="790" y="350" as="targetPoint" />
          </mxGeometry>
        </mxCell>
        <mxCell id="YRJLkEktAnnrpUQx_kfz-48" value="0,N" style="resizable=0;html=1;whiteSpace=wrap;align=right;verticalAlign=bottom;" connectable="0" vertex="1" parent="YRJLkEktAnnrpUQx_kfz-47">
          <mxGeometry x="1" relative="1" as="geometry" />
        </mxCell>
        <mxCell id="YRJLkEktAnnrpUQx_kfz-49" value="" style="endArrow=none;html=1;rounded=0;exitX=0;exitY=0.5;exitDx=0;exitDy=0;" edge="1" parent="1" source="YRJLkEktAnnrpUQx_kfz-46" target="YRJLkEktAnnrpUQx_kfz-4">
          <mxGeometry relative="1" as="geometry">
            <mxPoint x="560" y="350" as="sourcePoint" />
            <mxPoint x="720" y="350" as="targetPoint" />
          </mxGeometry>
        </mxCell>
        <mxCell id="YRJLkEktAnnrpUQx_kfz-50" value="1" style="resizable=0;html=1;whiteSpace=wrap;align=right;verticalAlign=bottom;" connectable="0" vertex="1" parent="YRJLkEktAnnrpUQx_kfz-49">
          <mxGeometry x="1" relative="1" as="geometry">
            <mxPoint x="30" y="7" as="offset" />
          </mxGeometry>
        </mxCell>
        <mxCell id="YRJLkEktAnnrpUQx_kfz-51" value="Investimentos" style="swimlane;childLayout=stackLayout;horizontal=1;startSize=50;horizontalStack=0;rounded=1;fontSize=14;fontStyle=0;strokeWidth=2;resizeParent=0;resizeLast=1;shadow=0;dashed=0;align=center;arcSize=4;whiteSpace=wrap;html=1;" vertex="1" parent="1">
          <mxGeometry x="350" y="10" width="160" height="120" as="geometry" />
        </mxCell>
        <mxCell id="YRJLkEktAnnrpUQx_kfz-52" value="+ id&lt;br&gt;+ idPessoa&lt;br&gt;+ nomeAtivo&lt;br&gt;+ qtd" style="align=left;strokeColor=none;fillColor=none;spacingLeft=4;fontSize=12;verticalAlign=top;resizable=0;rotatable=0;part=1;html=1;" vertex="1" parent="YRJLkEktAnnrpUQx_kfz-51">
          <mxGeometry y="50" width="160" height="70" as="geometry" />
        </mxCell>
        <mxCell id="YRJLkEktAnnrpUQx_kfz-53" value="Transacao" style="swimlane;childLayout=stackLayout;horizontal=1;startSize=50;horizontalStack=0;rounded=1;fontSize=14;fontStyle=0;strokeWidth=2;resizeParent=0;resizeLast=1;shadow=0;dashed=0;align=center;arcSize=4;whiteSpace=wrap;html=1;" vertex="1" parent="1">
          <mxGeometry x="1150" y="130" width="160" height="150" as="geometry" />
        </mxCell>
        <mxCell id="YRJLkEktAnnrpUQx_kfz-54" value="+ id&lt;br&gt;+ idPessoa&lt;br&gt;+ tipo&lt;br&gt;+ valor&lt;br&gt;+ data" style="align=left;strokeColor=none;fillColor=none;spacingLeft=4;fontSize=12;verticalAlign=top;resizable=0;rotatable=0;part=1;html=1;" vertex="1" parent="YRJLkEktAnnrpUQx_kfz-53">
          <mxGeometry y="50" width="160" height="100" as="geometry" />
        </mxCell>
        <mxCell id="YRJLkEktAnnrpUQx_kfz-55" value="agencia" style="shape=rhombus;perimeter=rhombusPerimeter;whiteSpace=wrap;html=1;align=center;" vertex="1" parent="1">
          <mxGeometry x="610" y="500" width="120" height="60" as="geometry" />
        </mxCell>
        <mxCell id="YRJLkEktAnnrpUQx_kfz-56" value="" style="endArrow=none;html=1;rounded=0;" edge="1" parent="1" source="YRJLkEktAnnrpUQx_kfz-55" target="YRJLkEktAnnrpUQx_kfz-39">
          <mxGeometry relative="1" as="geometry">
            <mxPoint x="630" y="530" as="sourcePoint" />
            <mxPoint x="790" y="530" as="targetPoint" />
          </mxGeometry>
        </mxCell>
        <mxCell id="YRJLkEktAnnrpUQx_kfz-58" value="N" style="resizable=0;html=1;whiteSpace=wrap;align=right;verticalAlign=bottom;" connectable="0" vertex="1" parent="YRJLkEktAnnrpUQx_kfz-56">
          <mxGeometry x="1" relative="1" as="geometry">
            <mxPoint x="9" y="20" as="offset" />
          </mxGeometry>
        </mxCell>
        <mxCell id="YRJLkEktAnnrpUQx_kfz-59" value="" style="endArrow=none;html=1;rounded=0;" edge="1" parent="1" source="YRJLkEktAnnrpUQx_kfz-55" target="YRJLkEktAnnrpUQx_kfz-41">
          <mxGeometry relative="1" as="geometry">
            <mxPoint x="670" y="560" as="sourcePoint" />
            <mxPoint x="830" y="560" as="targetPoint" />
          </mxGeometry>
        </mxCell>
        <mxCell id="YRJLkEktAnnrpUQx_kfz-60" value="1" style="resizable=0;html=1;whiteSpace=wrap;align=right;verticalAlign=bottom;" connectable="0" vertex="1" parent="YRJLkEktAnnrpUQx_kfz-59">
          <mxGeometry x="1" relative="1" as="geometry" />
        </mxCell>
        <mxCell id="YRJLkEktAnnrpUQx_kfz-61" value="gerente" style="shape=rhombus;perimeter=rhombusPerimeter;whiteSpace=wrap;html=1;align=center;" vertex="1" parent="1">
          <mxGeometry x="860" y="470" width="120" height="60" as="geometry" />
        </mxCell>
        <mxCell id="YRJLkEktAnnrpUQx_kfz-62" value="" style="endArrow=none;html=1;rounded=0;exitX=1;exitY=1;exitDx=0;exitDy=0;" edge="1" parent="1" source="YRJLkEktAnnrpUQx_kfz-61" target="YRJLkEktAnnrpUQx_kfz-5">
          <mxGeometry relative="1" as="geometry">
            <mxPoint x="940" y="510" as="sourcePoint" />
            <mxPoint x="1110" y="500" as="targetPoint" />
          </mxGeometry>
        </mxCell>
        <mxCell id="YRJLkEktAnnrpUQx_kfz-63" value="1" style="resizable=0;html=1;whiteSpace=wrap;align=right;verticalAlign=bottom;" connectable="0" vertex="1" parent="YRJLkEktAnnrpUQx_kfz-62">
          <mxGeometry x="1" relative="1" as="geometry" />
        </mxCell>
        <mxCell id="YRJLkEktAnnrpUQx_kfz-64" value="" style="endArrow=none;html=1;rounded=0;exitX=0.5;exitY=0;exitDx=0;exitDy=0;" edge="1" parent="1" source="YRJLkEktAnnrpUQx_kfz-61" target="YRJLkEktAnnrpUQx_kfz-39">
          <mxGeometry relative="1" as="geometry">
            <mxPoint x="910" y="490" as="sourcePoint" />
            <mxPoint x="1070" y="490" as="targetPoint" />
          </mxGeometry>
        </mxCell>
        <mxCell id="YRJLkEktAnnrpUQx_kfz-65" value="N" style="resizable=0;html=1;whiteSpace=wrap;align=right;verticalAlign=bottom;" connectable="0" vertex="1" parent="YRJLkEktAnnrpUQx_kfz-64">
          <mxGeometry x="1" relative="1" as="geometry" />
        </mxCell>
        <mxCell id="YRJLkEktAnnrpUQx_kfz-68" value="Carteia de Investimentos" style="shape=rhombus;perimeter=rhombusPerimeter;whiteSpace=wrap;html=1;align=center;" vertex="1" parent="1">
          <mxGeometry x="587" y="130" width="120" height="60" as="geometry" />
        </mxCell>
        <mxCell id="YRJLkEktAnnrpUQx_kfz-71" value="" style="endArrow=none;html=1;rounded=0;exitX=0.072;exitY=0.517;exitDx=0;exitDy=0;exitPerimeter=0;" edge="1" parent="1" source="YRJLkEktAnnrpUQx_kfz-68" target="YRJLkEktAnnrpUQx_kfz-52">
          <mxGeometry relative="1" as="geometry">
            <mxPoint x="640" y="130" as="sourcePoint" />
            <mxPoint x="800" y="130" as="targetPoint" />
          </mxGeometry>
        </mxCell>
        <mxCell id="YRJLkEktAnnrpUQx_kfz-72" value="N" style="resizable=0;html=1;whiteSpace=wrap;align=right;verticalAlign=bottom;" connectable="0" vertex="1" parent="YRJLkEktAnnrpUQx_kfz-71">
          <mxGeometry x="1" relative="1" as="geometry">
            <mxPoint x="20" as="offset" />
          </mxGeometry>
        </mxCell>
        <mxCell id="YRJLkEktAnnrpUQx_kfz-73" value="" style="endArrow=none;html=1;rounded=0;" edge="1" parent="1" source="YRJLkEktAnnrpUQx_kfz-68" target="YRJLkEktAnnrpUQx_kfz-38">
          <mxGeometry relative="1" as="geometry">
            <mxPoint x="700" y="150" as="sourcePoint" />
            <mxPoint x="860" y="150" as="targetPoint" />
          </mxGeometry>
        </mxCell>
        <mxCell id="YRJLkEktAnnrpUQx_kfz-74" value="1" style="resizable=0;html=1;whiteSpace=wrap;align=right;verticalAlign=bottom;" connectable="0" vertex="1" parent="YRJLkEktAnnrpUQx_kfz-73">
          <mxGeometry x="1" relative="1" as="geometry" />
        </mxCell>
        <mxCell id="YRJLkEktAnnrpUQx_kfz-75" value="transacoesRealizadas" style="shape=rhombus;perimeter=rhombusPerimeter;whiteSpace=wrap;html=1;align=center;" vertex="1" parent="1">
          <mxGeometry x="880" y="90" width="157" height="80" as="geometry" />
        </mxCell>
        <mxCell id="YRJLkEktAnnrpUQx_kfz-76" value="" style="endArrow=none;html=1;rounded=0;" edge="1" parent="1" source="YRJLkEktAnnrpUQx_kfz-75" target="YRJLkEktAnnrpUQx_kfz-38">
          <mxGeometry relative="1" as="geometry">
            <mxPoint x="898.5" y="150" as="sourcePoint" />
            <mxPoint x="898.5" y="310" as="targetPoint" />
          </mxGeometry>
        </mxCell>
        <mxCell id="YRJLkEktAnnrpUQx_kfz-77" value="1" style="resizable=0;html=1;whiteSpace=wrap;align=right;verticalAlign=bottom;" connectable="0" vertex="1" parent="YRJLkEktAnnrpUQx_kfz-76">
          <mxGeometry x="1" relative="1" as="geometry" />
        </mxCell>
        <mxCell id="YRJLkEktAnnrpUQx_kfz-78" value="" style="endArrow=none;html=1;rounded=0;entryX=0;entryY=0;entryDx=0;entryDy=0;exitX=1;exitY=0.5;exitDx=0;exitDy=0;" edge="1" parent="1" source="YRJLkEktAnnrpUQx_kfz-75" target="YRJLkEktAnnrpUQx_kfz-54">
          <mxGeometry relative="1" as="geometry">
            <mxPoint x="970" y="110" as="sourcePoint" />
            <mxPoint x="1050" y="110" as="targetPoint" />
          </mxGeometry>
        </mxCell>
        <mxCell id="YRJLkEktAnnrpUQx_kfz-79" value="N" style="resizable=0;html=1;whiteSpace=wrap;align=right;verticalAlign=bottom;" connectable="0" vertex="1" parent="YRJLkEktAnnrpUQx_kfz-78">
          <mxGeometry x="1" relative="1" as="geometry" />
        </mxCell>
        <mxCell id="YRJLkEktAnnrpUQx_kfz-80" value="Trabalha" style="shape=rhombus;perimeter=rhombusPerimeter;whiteSpace=wrap;html=1;align=center;" vertex="1" parent="1">
          <mxGeometry x="690" y="642.5" width="120" height="60" as="geometry" />
        </mxCell>
        <mxCell id="YRJLkEktAnnrpUQx_kfz-81" value="" style="endArrow=none;html=1;rounded=0;" edge="1" parent="1" source="YRJLkEktAnnrpUQx_kfz-80" target="YRJLkEktAnnrpUQx_kfz-42">
          <mxGeometry relative="1" as="geometry">
            <mxPoint x="700" y="680" as="sourcePoint" />
            <mxPoint x="960" y="680" as="targetPoint" />
          </mxGeometry>
        </mxCell>
        <mxCell id="YRJLkEktAnnrpUQx_kfz-82" value="1" style="resizable=0;html=1;whiteSpace=wrap;align=right;verticalAlign=bottom;" connectable="0" vertex="1" parent="YRJLkEktAnnrpUQx_kfz-81">
          <mxGeometry x="1" relative="1" as="geometry" />
        </mxCell>
        <mxCell id="YRJLkEktAnnrpUQx_kfz-83" value="" style="endArrow=none;html=1;rounded=0;entryX=0;entryY=0.5;entryDx=0;entryDy=0;" edge="1" parent="1" source="YRJLkEktAnnrpUQx_kfz-80" target="YRJLkEktAnnrpUQx_kfz-6">
          <mxGeometry relative="1" as="geometry">
            <mxPoint x="810" y="680" as="sourcePoint" />
            <mxPoint x="970" y="680" as="targetPoint" />
          </mxGeometry>
        </mxCell>
        <mxCell id="YRJLkEktAnnrpUQx_kfz-84" value="N" style="resizable=0;html=1;whiteSpace=wrap;align=right;verticalAlign=bottom;" connectable="0" vertex="1" parent="YRJLkEktAnnrpUQx_kfz-83">
          <mxGeometry x="1" relative="1" as="geometry" />
        </mxCell>
      </root>
    </mxGraphModel>
  </diagram>
</mxfile>
